<svg xmlns="http://www.w3.org/2000/svg" width="20.753" height="13.403" viewBox="0 0 20.753 13.403">
  <g id="Group_370" data-name="Group 370" transform="translate(20.753 13.403) rotate(180)">
    <g id="Group_96" data-name="Group 96" transform="translate(0 0)">
      <ellipse id="Ellipse_193" data-name="Ellipse 193" cx="1.306" cy="1.306" rx="1.306" ry="1.306" transform="matrix(-0.16, 0.987, -0.987, -0.16, 20.753, 7.509)" fill="#fff"/>
      <ellipse id="Ellipse_194" data-name="Ellipse 194" cx="1.306" cy="1.306" rx="1.306" ry="1.306" transform="translate(20.71 6.216) rotate(172.982)" fill="#fff"/>
      <circle id="Ellipse_195" data-name="Ellipse 195" cx="1.306" cy="1.306" r="1.306" transform="translate(17.552 8.588) rotate(135)" fill="#fff"/>
      <ellipse id="Ellipse_196" data-name="Ellipse 196" cx="1.306" cy="1.306" rx="1.306" ry="1.306" transform="matrix(-0.982, 0.189, -0.189, -0.982, 17.234, 6.115)" fill="#fff"/>
      <ellipse id="Ellipse_197" data-name="Ellipse 197" cx="1.306" cy="1.306" rx="1.306" ry="1.306" transform="matrix(-0.993, 0.122, -0.122, -0.993, 13.631, 9.725)" fill="#fff"/>
      <ellipse id="Ellipse_198" data-name="Ellipse 198" cx="1.306" cy="1.306" rx="1.306" ry="1.306" transform="translate(13.973 5.504) rotate(148.283)" fill="#fff"/>
      <path id="Path_348" data-name="Path 348" d="M0,1.306A1.306,1.306,0,1,0,1.306,0,1.306,1.306,0,0,0,0,1.306Z" transform="translate(7.321 10.791)" fill="#fff"/>
      <ellipse id="Ellipse_199" data-name="Ellipse 199" cx="1.306" cy="1.306" rx="1.306" ry="1.306" transform="translate(10.054 9.759) rotate(174.345)" fill="#fff"/>
      <ellipse id="Ellipse_200" data-name="Ellipse 200" cx="1.306" cy="1.306" rx="1.306" ry="1.306" transform="translate(10.197 6.05) rotate(166.718)" fill="#fff"/>
      <ellipse id="Ellipse_201" data-name="Ellipse 201" cx="1.306" cy="1.306" rx="1.306" ry="1.306" transform="translate(10.197 2.541) rotate(166.718)" fill="#fff"/>
      <ellipse id="Ellipse_202" data-name="Ellipse 202" cx="1.306" cy="1.306" rx="1.306" ry="1.306" transform="translate(6.486 9.782) rotate(175.269)" fill="#fff"/>
      <ellipse id="Ellipse_203" data-name="Ellipse 203" cx="1.306" cy="1.306" rx="1.306" ry="1.306" transform="translate(6.606 6.115) rotate(169.099)" fill="#fff"/>
      <ellipse id="Ellipse_204" data-name="Ellipse 204" cx="1.306" cy="1.306" rx="1.306" ry="1.306" transform="matrix(-0.526, 0.851, -0.851, -0.526, 6.874, 4.655)" fill="#fff"/>
      <ellipse id="Ellipse_205" data-name="Ellipse 205" cx="1.306" cy="1.306" rx="1.306" ry="1.306" transform="matrix(-0.526, 0.851, -0.851, -0.526, 3.594, 6.336)" fill="#fff"/>
    </g>
  </g>
</svg>
