<svg xmlns="http://www.w3.org/2000/svg" width="76" height="60.062" viewBox="0 0 76 60.062">
  <g id="Group_514" data-name="Group 514" transform="translate(-52.604 -693)">
    <g id="Ellipse_247" data-name="Ellipse 247" transform="translate(56.92 693)" fill="none" stroke="#f78320" stroke-width="2">
      <circle cx="16.5" cy="16.5" r="16.5" stroke="none"/>
      <circle cx="16.5" cy="16.5" r="15.5" fill="none"/>
    </g>
    <g id="Group_509" data-name="Group 509" transform="translate(22 5)">
      <circle id="Ellipse_141" data-name="Ellipse 141" cx="0.714" cy="0.714" r="0.714" transform="translate(43.153 704.063)" fill="#fafafa"/>
      <circle id="Ellipse_150" data-name="Ellipse 150" cx="0.714" cy="0.714" r="0.714" transform="translate(43.153 706.473)" fill="#fafafa"/>
      <g id="Group_508" data-name="Group 508">
        <text id="_Swipe_Up_" data-name="
Swipe Up " transform="translate(30.604 709.062)" fill="#20c5f7" font-size="12" font-family="Arial-BoldMT, Arial" font-weight="700"><tspan x="0" y="11"></tspan><tspan fill="#f7f7f7" font-size="10"><tspan x="0" y="25">Swipe Up</tspan><tspan y="25" fill="#20c5f7" font-size="12"> </tspan></tspan></text>
        <circle id="Ellipse_142" data-name="Ellipse 142" cx="0.714" cy="0.714" r="0.714" transform="translate(44.953 704.062) rotate(-76.718)" fill="#fafafa"/>
        <circle id="Ellipse_143" data-name="Ellipse 143" cx="0.714" cy="0.714" r="0.714" transform="translate(46.898 702.585) rotate(-76.718)" fill="#fafafa"/>
        <circle id="Ellipse_144" data-name="Ellipse 144" cx="0.714" cy="0.714" r="0.714" transform="translate(48.843 700.983) rotate(-76.718)" fill="#fafafa"/>
        <circle id="Ellipse_145" data-name="Ellipse 145" cx="0.714" cy="0.714" r="0.714" transform="translate(58.337 704.246) rotate(-13.283)" fill="#fafafa"/>
        <circle id="Ellipse_146" data-name="Ellipse 146" cx="0.714" cy="0.714" r="0.714" transform="translate(56.242 703.529) rotate(-45)" fill="#fafafa"/>
        <circle id="Ellipse_147" data-name="Ellipse 147" cx="0.714" cy="0.714" r="0.714" transform="translate(54.593 701.34)" fill="#fafafa"/>
        <circle id="Ellipse_148" data-name="Ellipse 148" cx="0.714" cy="0.714" r="0.714" transform="translate(52.648 699.738)" fill="#fafafa"/>
        <circle id="Ellipse_149" data-name="Ellipse 149" cx="0.714" cy="0.714" r="0.714" transform="translate(50.673 698.812) rotate(-13.283)" fill="#fafafa"/>
        <circle id="Ellipse_151" data-name="Ellipse 151" cx="0.714" cy="0.714" r="0.714" transform="translate(44.879 705.553) rotate(-22.5)" fill="#fafafa"/>
        <circle id="Ellipse_152" data-name="Ellipse 152" cx="0.714" cy="0.714" r="0.714" transform="translate(46.824 704.077) rotate(-22.5)" fill="#fafafa"/>
        <circle id="Ellipse_153" data-name="Ellipse 153" cx="0.714" cy="0.714" r="0.714" transform="translate(48.843 703.393) rotate(-76.718)" fill="#fafafa"/>
        <circle id="Ellipse_154" data-name="Ellipse 154" cx="0.714" cy="0.714" r="0.714" transform="translate(58.337 706.655) rotate(-13.283)" fill="#fafafa"/>
        <circle id="Ellipse_155" data-name="Ellipse 155" cx="0.714" cy="0.714" r="0.714" transform="translate(56.433 705.349) rotate(-9.217)" fill="#fafafa"/>
        <circle id="Ellipse_156" data-name="Ellipse 156" cx="0.714" cy="0.714" r="0.714" transform="translate(54.593 703.749)" fill="#fafafa"/>
        <circle id="Ellipse_157" data-name="Ellipse 157" cx="0.714" cy="0.714" r="0.714" transform="translate(52.648 702.147)" fill="#fafafa"/>
        <circle id="Ellipse_158" data-name="Ellipse 158" cx="0.714" cy="0.714" r="0.714" transform="translate(50.521 701.752) rotate(-45)" fill="#fafafa"/>
      </g>
    </g>
  </g>
</svg>
