<svg xmlns="http://www.w3.org/2000/svg" width="20.993" height="11.877" viewBox="0 0 20.993 11.877">
  <g id="arrow" transform="translate(3294.138 2494.611) rotate(180)">
    <circle id="Ellipse_141" data-name="Ellipse 141" cx="0.887" cy="0.887" r="0.887" transform="translate(3273.145 2489.663)" fill="#fafafa"/>
    <circle id="Ellipse_142" data-name="Ellipse 142" cx="0.887" cy="0.887" r="0.887" transform="translate(3275.38 2489.662) rotate(-76.718)" fill="#fafafa"/>
    <circle id="Ellipse_143" data-name="Ellipse 143" cx="0.887" cy="0.887" r="0.887" transform="translate(3277.795 2487.829) rotate(-76.718)" fill="#fafafa"/>
    <circle id="Ellipse_144" data-name="Ellipse 144" cx="0.887" cy="0.887" r="0.887" transform="translate(3280.211 2485.839) rotate(-76.718)" fill="#fafafa"/>
    <circle id="Ellipse_145" data-name="Ellipse 145" cx="0.887" cy="0.887" r="0.887" transform="translate(3292.003 2489.891) rotate(-13.283)" fill="#fafafa"/>
    <circle id="Ellipse_146" data-name="Ellipse 146" cx="0.887" cy="0.887" r="0.887" transform="translate(3289.402 2489.002) rotate(-45)" fill="#fafafa"/>
    <circle id="Ellipse_147" data-name="Ellipse 147" cx="0.887" cy="0.887" r="0.887" transform="translate(3287.353 2486.282)" fill="#fafafa"/>
    <circle id="Ellipse_148" data-name="Ellipse 148" cx="0.887" cy="0.887" r="0.887" transform="translate(3284.938 2484.292)" fill="#fafafa"/>
    <circle id="Ellipse_149" data-name="Ellipse 149" cx="0.887" cy="0.887" r="0.887" transform="translate(3282.484 2483.141) rotate(-13.283)" fill="#fafafa"/>
    <circle id="Ellipse_150" data-name="Ellipse 150" cx="0.887" cy="0.887" r="0.887" transform="translate(3273.145 2492.657)" fill="#fafafa"/>
    <circle id="Ellipse_151" data-name="Ellipse 151" cx="0.887" cy="0.887" r="0.887" transform="translate(3275.288 2491.515) rotate(-22.5)" fill="#fafafa"/>
    <circle id="Ellipse_152" data-name="Ellipse 152" cx="0.887" cy="0.887" r="0.887" transform="translate(3277.703 2489.681) rotate(-22.5)" fill="#fafafa"/>
    <circle id="Ellipse_153" data-name="Ellipse 153" cx="0.887" cy="0.887" r="0.887" transform="translate(3280.211 2488.832) rotate(-76.718)" fill="#fafafa"/>
    <circle id="Ellipse_154" data-name="Ellipse 154" cx="0.887" cy="0.887" r="0.887" transform="translate(3292.003 2492.884) rotate(-13.283)" fill="#fafafa"/>
    <circle id="Ellipse_155" data-name="Ellipse 155" cx="0.887" cy="0.887" r="0.887" transform="translate(3289.638 2491.261) rotate(-9.217)" fill="#fafafa"/>
    <circle id="Ellipse_156" data-name="Ellipse 156" cx="0.887" cy="0.887" r="0.887" transform="translate(3287.353 2489.274)" fill="#fafafa"/>
    <circle id="Ellipse_157" data-name="Ellipse 157" cx="0.887" cy="0.887" r="0.887" transform="translate(3284.938 2487.285)" fill="#fafafa"/>
    <circle id="Ellipse_158" data-name="Ellipse 158" cx="0.887" cy="0.887" r="0.887" transform="translate(3282.297 2486.793) rotate(-45)" fill="#fafafa"/>
  </g>
</svg>
