<svg xmlns="http://www.w3.org/2000/svg" width="749" height="749" viewBox="0 0 749 749">
  <g id="Group_330" data-name="Group 330" transform="translate(0.001 0.001)" opacity="0.294">
    <path id="Path_2652" data-name="Path 2652" d="M484.951,0h-5.08L0,479.872v5.08Z" fill="#535453"/>
    <path id="Path_2653" data-name="Path 2653" d="M459.56,0h-5.077L0,454.482v5.078Z" fill="#535453"/>
    <path id="Path_2654" data-name="Path 2654" d="M472.255,0h-5.079L0,467.176v5.08Z" fill="#535453"/>
    <path id="Path_2655" data-name="Path 2655" d="M497.646,0h-5.08L0,492.568v5.079Z" fill="#535453"/>
    <path id="Path_2656" data-name="Path 2656" d="M523.035,0h-5.08L0,517.956v5.079Z" fill="#535453"/>
    <path id="Path_2657" data-name="Path 2657" d="M510.34,0h-5.078L0,505.262v5.078Z" fill="#535453"/>
    <path id="Path_2658" data-name="Path 2658" d="M535.729,0h-5.078L0,530.651v5.078Z" fill="#535453"/>
    <path id="Path_2659" data-name="Path 2659" d="M446.865,0h-5.078L0,441.788v5.077Z" fill="#535453"/>
    <path id="Path_2660" data-name="Path 2660" d="M383.389,0H378.31L0,378.311v5.077Z" fill="#535453"/>
    <path id="Path_2661" data-name="Path 2661" d="M396.082,0H391L0,391.005v5.077Z" fill="#535453"/>
    <path id="Path_2662" data-name="Path 2662" d="M434.166,0h-5.077L0,429.088v5.078Z" fill="#535453"/>
    <path id="Path_2663" data-name="Path 2663" d="M370.693,0h-5.079L0,365.614v5.079Z" fill="#535453"/>
    <path id="Path_2664" data-name="Path 2664" d="M358,0h-5.079L0,352.919V358Z" fill="#535453"/>
    <path id="Path_2665" data-name="Path 2665" d="M421.471,0h-5.078L0,416.394v5.078Z" fill="#535453"/>
    <path id="Path_2666" data-name="Path 2666" d="M408.777,0H403.7L0,403.7v5.078Z" fill="#535453"/>
    <path id="Path_2667" data-name="Path 2667" d="M662.679,0H657.6L0,657.6v5.075Z" fill="#535453"/>
    <path id="Path_2668" data-name="Path 2668" d="M675.374,0H670.3L0,670.3v5.075Z" fill="#535453"/>
    <path id="Path_2669" data-name="Path 2669" d="M649.984,0h-5.075L0,644.909v5.075Z" fill="#535453"/>
    <path id="Path_2670" data-name="Path 2670" d="M700.768,0h-5.077L0,695.69v5.078Z" fill="#535453"/>
    <path id="Path_2671" data-name="Path 2671" d="M713.461,0h-5.076L0,708.384v5.077Z" fill="#535453"/>
    <path id="Path_2672" data-name="Path 2672" d="M688.068,0h-5.076L0,682.992v5.075Z" fill="#535453"/>
    <path id="Path_2673" data-name="Path 2673" d="M637.291,0h-5.077L0,632.214v5.077Z" fill="#535453"/>
    <path id="Path_2674" data-name="Path 2674" d="M599.2,0h-5.076L0,594.127v5.078Z" fill="#535453"/>
    <path id="Path_2675" data-name="Path 2675" d="M573.818,0h-5.078L0,568.739v5.079Z" fill="#535453"/>
    <path id="Path_2676" data-name="Path 2676" d="M561.117,0H556.04L0,556.04v5.078Z" fill="#535453"/>
    <path id="Path_2677" data-name="Path 2677" d="M586.51,0h-5.075L0,581.433v5.077Z" fill="#535453"/>
    <path id="Path_2678" data-name="Path 2678" d="M624.6,0h-5.077L0,619.519V624.6Z" fill="#535453"/>
    <path id="Path_2679" data-name="Path 2679" d="M611.9,0h-5.075L0,606.824V611.9Z" fill="#535453"/>
    <path id="Path_2680" data-name="Path 2680" d="M548.423,0h-5.078L0,543.345v5.078Z" fill="#535453"/>
    <path id="Path_2681" data-name="Path 2681" d="M129.487,0h-5.079L0,124.408v5.079Z" fill="#535453"/>
    <path id="Path_2682" data-name="Path 2682" d="M66.011,0H60.934L0,60.934v5.077Z" fill="#535453"/>
    <path id="Path_2683" data-name="Path 2683" d="M91.4,0H86.324L0,86.324V91.4Z" fill="#535453"/>
    <path id="Path_2684" data-name="Path 2684" d="M78.709,0h-5.08L0,73.629v5.08Z" fill="#535453"/>
    <path id="Path_2685" data-name="Path 2685" d="M104.1,0H99.018L0,99.018V104.1Z" fill="#535453"/>
    <path id="Path_2686" data-name="Path 2686" d="M116.792,0h-5.079L0,111.714v5.079Z" fill="#535453"/>
    <path id="Path_2687" data-name="Path 2687" d="M142.182,0H137.1L0,137.1v5.078Z" fill="#535453"/>
    <path id="Path_2688" data-name="Path 2688" d="M726.155,0h-5.076L0,721.079v5.076Z" fill="#535453"/>
    <path id="Path_2689" data-name="Path 2689" d="M749,0h-2.532L0,746.468V749H2.547L749,2.546Z" fill="#535453"/>
    <path id="Path_2690" data-name="Path 2690" d="M0,2.535,2.535,0H0Z" fill="#535453"/>
    <path id="Path_2691" data-name="Path 2691" d="M15.229,0H10.153L0,10.153v5.077Z" fill="#535453"/>
    <path id="Path_2692" data-name="Path 2692" d="M154.876,0H149.8L0,149.8v5.077Z" fill="#535453"/>
    <path id="Path_2693" data-name="Path 2693" d="M53.315,0h-5.08L0,48.235v5.08Z" fill="#535453"/>
    <path id="Path_2694" data-name="Path 2694" d="M27.924,0H22.846L0,22.846v5.078Z" fill="#535453"/>
    <path id="Path_2695" data-name="Path 2695" d="M40.619,0H35.541L0,35.541v5.078Z" fill="#535453"/>
    <path id="Path_2696" data-name="Path 2696" d="M218.352,0h-5.077L0,213.274v5.077Z" fill="#535453"/>
    <path id="Path_2697" data-name="Path 2697" d="M281.825,0H276.75L0,276.75v5.075Z" fill="#535453"/>
    <path id="Path_2698" data-name="Path 2698" d="M269.132,0h-5.076L0,264.055v5.076Z" fill="#535453"/>
    <path id="Path_2699" data-name="Path 2699" d="M256.437,0h-5.076L0,251.361v5.076Z" fill="#535453"/>
    <path id="Path_2700" data-name="Path 2700" d="M294.522,0h-5.076L0,289.445v5.076Z" fill="#535453"/>
    <path id="Path_2701" data-name="Path 2701" d="M332.609,0h-5.077L0,327.532v5.077Z" fill="#535453"/>
    <path id="Path_2702" data-name="Path 2702" d="M307.214,0h-5.076L0,302.138v5.076Z" fill="#535453"/>
    <path id="Path_2703" data-name="Path 2703" d="M319.915,0h-5.077L0,314.838v5.077Z" fill="#535453"/>
    <path id="Path_2704" data-name="Path 2704" d="M243.742,0h-5.078L0,238.664v5.078Z" fill="#535453"/>
    <path id="Path_2705" data-name="Path 2705" d="M192.965,0h-5.08L0,187.885v5.08Z" fill="#535453"/>
    <path id="Path_2706" data-name="Path 2706" d="M180.265,0h-5.078L0,175.186v5.078Z" fill="#535453"/>
    <path id="Path_2707" data-name="Path 2707" d="M205.657,0H200.58L0,200.58v5.077Z" fill="#535453"/>
    <path id="Path_2708" data-name="Path 2708" d="M345.3,0h-5.078L0,340.226V345.3Z" fill="#535453"/>
    <path id="Path_2709" data-name="Path 2709" d="M231.047,0H225.97L0,225.97v5.077Z" fill="#535453"/>
    <path id="Path_2710" data-name="Path 2710" d="M167.569,0h-5.077L0,162.492v5.077Z" fill="#535453"/>
    <path id="Path_2711" data-name="Path 2711" d="M1009.438,707.3v-5.077l-307.22,307.219H707.3Z" transform="translate(-260.439 -260.439)" fill="#535453"/>
    <path id="Path_2712" data-name="Path 2712" d="M1031.892,767.837V762.76L762.76,1031.892h5.078Z" transform="translate(-282.893 -282.893)" fill="#535453"/>
    <path id="Path_2713" data-name="Path 2713" d="M1084.276,909.081V904L904,1084.276h5.077Z" transform="translate(-335.277 -335.277)" fill="#535453"/>
    <path id="Path_2714" data-name="Path 2714" d="M1039.375,788.018v-5.08L782.938,1039.375h5.08Z" transform="translate(-290.376 -290.376)" fill="#535453"/>
    <path id="Path_2715" data-name="Path 2715" d="M1054.343,828.372v-5.078L823.295,1054.343h5.077Z" transform="translate(-305.344 -305.344)" fill="#535453"/>
    <path id="Path_2716" data-name="Path 2716" d="M1061.825,848.547v-5.078L843.469,1061.825h5.078Z" transform="translate(-312.826 -312.826)" fill="#535453"/>
    <path id="Path_2717" data-name="Path 2717" d="M1076.793,888.9v-5.078L883.827,1076.793H888.9Z" transform="translate(-327.794 -327.794)" fill="#535453"/>
    <path id="Path_2718" data-name="Path 2718" d="M1069.309,868.727v-5.08L863.646,1069.309h5.081Z" transform="translate(-320.31 -320.31)" fill="#535453"/>
    <path id="Path_2719" data-name="Path 2719" d="M1046.86,808.195v-5.077L803.118,1046.859H808.2Z" transform="translate(-297.861 -297.861)" fill="#535453"/>
    <path id="Path_2720" data-name="Path 2720" d="M1024.408,747.661v-5.079L742.583,1024.408h5.079Z" transform="translate(-275.41 -275.409)" fill="#535453"/>
    <path id="Path_2721" data-name="Path 2721" d="M979.5,626.584v-5.077l-358,358h5.077Z" transform="translate(-230.505 -230.505)" fill="#535453"/>
    <path id="Path_2722" data-name="Path 2722" d="M994.471,666.94v-5.079L661.862,994.471h5.078Z" transform="translate(-245.472 -245.472)" fill="#535453"/>
    <path id="Path_2723" data-name="Path 2723" d="M986.988,646.763v-5.077l-345.3,345.3h5.077Z" transform="translate(-237.989 -237.989)" fill="#535453"/>
    <path id="Path_2724" data-name="Path 2724" d="M1016.925,727.483v-5.077l-294.519,294.52h5.077Z" transform="translate(-267.927 -267.926)" fill="#535453"/>
    <path id="Path_2725" data-name="Path 2725" d="M1001.955,687.12v-5.078L682.042,1001.955h5.078Z" transform="translate(-252.956 -252.956)" fill="#535453"/>
    <path id="Path_2726" data-name="Path 2726" d="M972.021,606.407V601.33L601.331,972.021h5.077Z" transform="translate(-223.022 -223.022)" fill="#535453"/>
    <path id="Path_2727" data-name="Path 2727" d="M1159.115,1110.866v-5.075l-53.324,53.324h5.075Z" transform="translate(-410.116 -410.116)" fill="#535453"/>
    <path id="Path_2728" data-name="Path 2728" d="M1166.6,1131.05v-5.076l-40.627,40.627h5.076Z" transform="translate(-417.602 -417.602)" fill="#535453"/>
    <path id="Path_2729" data-name="Path 2729" d="M1151.631,1090.689v-5.077l-66.019,66.019h5.077Z" transform="translate(-402.632 -402.632)" fill="#535453"/>
    <path id="Path_2730" data-name="Path 2730" d="M1174.084,1151.228v-5.076l-27.932,27.932h5.076Z" transform="translate(-425.085 -425.085)" fill="#535453"/>
    <path id="Path_2731" data-name="Path 2731" d="M1189.05,1186.5l-2.546,2.546h2.546Z" transform="translate(-440.051 -440.051)" fill="#535453"/>
    <path id="Path_2732" data-name="Path 2732" d="M1181.568,1171.406v-5.076l-15.238,15.238h5.076Z" transform="translate(-432.569 -432.569)" fill="#535453"/>
    <path id="Path_2733" data-name="Path 2733" d="M1091.763,929.265v-5.077L924.19,1091.762h5.077Z" transform="translate(-342.764 -342.763)" fill="#535453"/>
    <path id="Path_2734" data-name="Path 2734" d="M1144.147,1070.511v-5.077l-78.714,78.714h5.077Z" transform="translate(-395.148 -395.148)" fill="#535453"/>
    <path id="Path_2735" data-name="Path 2735" d="M738.852,0h-5.079L0,733.773v5.08Z" fill="#535453"/>
    <path id="Path_2736" data-name="Path 2736" d="M1114.213,989.8v-5.078L984.722,1114.213H989.8Z" transform="translate(-365.214 -365.214)" fill="#535453"/>
    <path id="Path_2737" data-name="Path 2737" d="M1099.247,949.443v-5.075L944.368,1099.246h5.075Z" transform="translate(-350.248 -350.247)" fill="#535453"/>
    <path id="Path_2738" data-name="Path 2738" d="M1136.664,1050.332v-5.075l-91.407,91.407h5.075Z" transform="translate(-387.665 -387.665)" fill="#535453"/>
    <path id="Path_2739" data-name="Path 2739" d="M1121.7,1009.976V1004.9l-116.8,116.8h5.076Z" transform="translate(-372.698 -372.698)" fill="#535453"/>
    <path id="Path_2740" data-name="Path 2740" d="M1129.18,1030.155v-5.077l-104.1,104.1h5.077Z" transform="translate(-380.181 -380.181)" fill="#535453"/>
    <path id="Path_2741" data-name="Path 2741" d="M1106.73,969.621v-5.076L964.546,1106.73h5.076Z" transform="translate(-357.731 -357.731)" fill="#535453"/>
    <path id="Path_2742" data-name="Path 2742" d="M822.346,202.843v-5.077L197.765,822.347h5.077Z" transform="translate(-73.347 -73.348)" fill="#535453"/>
    <path id="Path_2743" data-name="Path 2743" d="M814.862,182.663v-5.079L177.585,814.862h5.077Z" transform="translate(-65.863 -65.863)" fill="#535453"/>
    <path id="Path_2744" data-name="Path 2744" d="M807.378,162.484v-5.078L157.406,807.378h5.078Z" transform="translate(-58.379 -58.379)" fill="#535453"/>
    <path id="Path_2745" data-name="Path 2745" d="M829.829,223.016v-5.078L217.94,829.828h5.078Z" transform="translate(-80.83 -80.829)" fill="#535453"/>
    <path id="Path_2746" data-name="Path 2746" d="M844.795,263.373v-5.081l-586.5,586.5h5.081Z" transform="translate(-95.796 -95.796)" fill="#535453"/>
    <path id="Path_2747" data-name="Path 2747" d="M799.895,142.305v-5.077L137.229,799.895h5.077Z" transform="translate(-50.896 -50.896)" fill="#535453"/>
    <path id="Path_2748" data-name="Path 2748" d="M837.312,243.195v-5.078l-599.2,599.2h5.078Z" transform="translate(-88.313 -88.313)" fill="#535453"/>
    <path id="Path_2749" data-name="Path 2749" d="M784.925,101.943V96.866L96.866,784.925h5.077Z" transform="translate(-35.926 -35.926)" fill="#535453"/>
    <path id="Path_2750" data-name="Path 2750" d="M762.473,41.409V36.331L36.33,762.474h5.08Z" transform="translate(-13.474 -13.475)" fill="#535453"/>
    <path id="Path_2751" data-name="Path 2751" d="M792.411,122.128v-5.077l-675.36,675.36h5.077Z" transform="translate(-43.412 -43.412)" fill="#535453"/>
    <path id="Path_2752" data-name="Path 2752" d="M769.957,61.587V56.508L56.507,769.957h5.08Z" transform="translate(-20.958 -20.958)" fill="#535453"/>
    <path id="Path_2753" data-name="Path 2753" d="M754.99,21.231V16.153L16.153,754.99h5.078Z" transform="translate(-5.991 -5.991)" fill="#535453"/>
    <path id="Path_2754" data-name="Path 2754" d="M852.28,283.551v-5.077L278.475,852.28h5.077Z" transform="translate(-103.281 -103.281)" fill="#535453"/>
    <path id="Path_2755" data-name="Path 2755" d="M777.442,81.765V76.688L76.689,777.441h5.078Z" transform="translate(-28.443 -28.442)" fill="#535453"/>
    <path id="Path_2756" data-name="Path 2756" d="M897.183,404.624v-5.076L399.547,897.184h5.076Z" transform="translate(-148.185 -148.185)" fill="#535453"/>
    <path id="Path_2757" data-name="Path 2757" d="M859.762,303.727v-5.078L298.649,859.762h5.078Z" transform="translate(-110.763 -110.763)" fill="#535453"/>
    <path id="Path_2758" data-name="Path 2758" d="M934.6,505.513v-5.075L500.438,934.6h5.075Z" transform="translate(-185.603 -185.603)" fill="#535453"/>
    <path id="Path_2759" data-name="Path 2759" d="M919.633,465.156v-5.077L460.079,919.633h5.077Z" transform="translate(-170.634 -170.634)" fill="#535453"/>
    <path id="Path_2760" data-name="Path 2760" d="M957.054,566.053v-5.076L560.977,957.054h5.076Z" transform="translate(-208.055 -208.055)" fill="#535453"/>
    <path id="Path_2761" data-name="Path 2761" d="M912.151,444.979V439.9L439.9,912.151h5.075Z" transform="translate(-163.152 -163.152)" fill="#535453"/>
    <path id="Path_2762" data-name="Path 2762" d="M942.087,525.7v-5.077L520.621,942.087H525.7Z" transform="translate(-193.088 -193.088)" fill="#535453"/>
    <path id="Path_2763" data-name="Path 2763" d="M949.571,545.874V540.8L540.8,949.571h5.076Z" transform="translate(-200.572 -200.572)" fill="#535453"/>
    <path id="Path_2764" data-name="Path 2764" d="M927.118,485.336v-5.077L480.259,927.118h5.077Z" transform="translate(-178.119 -178.119)" fill="#535453"/>
    <path id="Path_2765" data-name="Path 2765" d="M904.668,424.8v-5.075L419.727,904.668H424.8Z" transform="translate(-155.669 -155.669)" fill="#535453"/>
    <path id="Path_2766" data-name="Path 2766" d="M874.732,344.089v-5.076L339.012,874.732h5.076Z" transform="translate(-125.733 -125.734)" fill="#535453"/>
    <path id="Path_2767" data-name="Path 2767" d="M867.249,323.912v-5.077L318.835,867.249h5.077Z" transform="translate(-118.25 -118.25)" fill="#535453"/>
    <path id="Path_2768" data-name="Path 2768" d="M882.216,364.267v-5.075L359.191,882.216h5.075Z" transform="translate(-133.217 -133.217)" fill="#535453"/>
    <path id="Path_2769" data-name="Path 2769" d="M889.7,384.446v-5.078L379.369,889.7h5.078Z" transform="translate(-140.701 -140.7)" fill="#535453"/>
    <path id="Path_2770" data-name="Path 2770" d="M964.537,586.232v-5.079L581.153,964.537h5.079Z" transform="translate(-215.539 -215.539)" fill="#535453"/>
  </g>
</svg>
